<?xml version="1.0" encoding="UTF-8" standalone="no"?>
<svg xmlns="http://www.w3.org/2000/svg" width="1092" height="485" viewBox="0 0 1092 485" version="1.1">
  <title>PICfix2 MATR!X single-color PCB silkscreen logo</title>
  <desc>Single-color vector artwork for KiCad PCB silkscreen use. White paths on transparent background.</desc>
  <path d="M 630.0 435.0 L 658.0 435.0 L 660.0 434.0 Z
    M 359.0 420.0 L 358.0 419.0 L 357.0 420.0 L 350.0 414.0 L 347.0 417.0 L 343.0 416.0 L 342.0 420.0 L 340.0 422.0 L 337.0 421.0 L 336.0 422.0 L 336.0 425.0 L 357.0 425.0 L 356.0 422.0 Z
    M 808.0 391.0 L 805.0 400.0 L 806.0 411.0 L 810.0 419.0 L 819.0 428.0 L 828.0 433.0 L 845.0 437.0 L 856.0 436.0 L 868.0 431.0 L 874.0 425.0 L 876.0 421.0 L 877.0 411.0 L 876.0 410.0 L 876.0 405.0 L 873.0 398.0 L 865.0 389.0 L 856.0 383.0 L 844.0 379.0 L 828.0 379.0 L 818.0 382.0 Z
    M 163.0 363.0 L 161.0 367.0 L 161.0 370.0 Z
    M 1062.0 273.0 L 1060.0 272.0 L 1057.0 273.0 L 1057.0 274.0 L 1059.0 275.0 L 1062.0 274.0 Z
    M 1046.0 243.0 L 1052.0 248.0 L 1055.0 247.0 L 1049.0 243.0 Z
    M 639.0 169.0 L 637.0 172.0 L 636.0 178.0 L 632.0 187.0 L 634.0 185.0 L 637.0 188.0 L 638.0 191.0 L 641.0 193.0 L 642.0 196.0 L 640.0 201.0 L 641.0 200.0 L 645.0 202.0 L 647.0 200.0 L 648.0 203.0 L 654.0 204.0 L 660.0 201.0 L 661.0 202.0 L 661.0 209.0 L 660.0 210.0 L 659.0 221.0 L 657.0 226.0 L 656.0 237.0 L 654.0 245.0 L 655.0 244.0 L 656.0 245.0 L 655.0 253.0 L 651.0 267.0 L 649.0 281.0 L 647.0 286.0 L 646.0 295.0 L 644.0 300.0 L 644.0 304.0 L 643.0 305.0 L 643.0 309.0 L 642.0 310.0 L 642.0 314.0 L 636.0 340.0 L 636.0 346.0 L 635.0 347.0 L 633.0 366.0 L 632.0 367.0 L 632.0 369.0 L 634.0 369.0 L 635.0 371.0 L 634.0 372.0 L 632.0 371.0 L 632.0 374.0 L 636.0 370.0 L 642.0 372.0 L 643.0 371.0 L 647.0 372.0 L 650.0 370.0 L 651.0 372.0 L 656.0 371.0 L 657.0 373.0 L 659.0 374.0 L 660.0 373.0 L 663.0 376.0 L 661.0 377.0 L 666.0 381.0 L 665.0 382.0 L 666.0 381.0 L 670.0 382.0 L 669.0 386.0 L 673.0 387.0 L 671.0 389.0 L 673.0 392.0 L 676.0 391.0 L 677.0 389.0 L 678.0 391.0 L 681.0 392.0 L 682.0 410.0 L 683.0 409.0 L 683.0 384.0 L 684.0 383.0 L 685.0 353.0 L 686.0 352.0 L 687.0 334.0 L 688.0 333.0 L 688.0 326.0 L 689.0 325.0 L 689.0 318.0 L 690.0 317.0 L 690.0 310.0 L 691.0 309.0 L 691.0 303.0 L 693.0 296.0 L 695.0 277.0 L 696.0 276.0 L 714.0 276.0 L 717.0 280.0 L 717.0 284.0 L 716.0 285.0 L 716.0 352.0 L 717.0 353.0 L 717.0 372.0 L 718.0 373.0 L 720.0 407.0 L 726.0 413.0 L 726.0 415.0 L 730.0 422.0 L 731.0 421.0 L 734.0 422.0 L 735.0 419.0 L 744.0 415.0 L 746.0 417.0 L 750.0 417.0 L 751.0 418.0 L 746.0 422.0 L 737.0 425.0 L 736.0 427.0 L 735.0 426.0 L 730.0 427.0 L 723.0 420.0 L 721.0 420.0 L 721.0 432.0 L 722.0 433.0 L 784.0 432.0 L 778.0 411.0 L 775.0 392.0 L 772.0 382.0 L 771.0 371.0 L 770.0 370.0 L 770.0 364.0 L 769.0 363.0 L 767.0 344.0 L 766.0 343.0 L 766.0 336.0 L 765.0 335.0 L 762.0 294.0 L 761.0 293.0 L 760.0 281.0 L 756.0 274.0 L 747.0 266.0 L 752.0 263.0 L 757.0 258.0 L 763.0 243.0 L 764.0 231.0 L 765.0 230.0 L 765.0 221.0 L 766.0 220.0 L 766.0 212.0 L 767.0 211.0 L 767.0 194.0 L 765.0 188.0 L 754.0 177.0 L 748.0 174.0 L 740.0 172.0 L 721.0 171.0 L 720.0 170.0 L 665.0 170.0 L 664.0 169.0 L 648.0 169.0 L 647.0 168.0 Z
    M 644.0 199.0 L 645.0 198.0 L 647.0 199.0 L 646.0 200.0 Z
    M 725.0 194.0 L 727.0 196.0 L 727.0 198.0 L 723.0 204.0 L 723.0 209.0 L 721.0 215.0 L 722.0 225.0 L 721.0 226.0 L 718.0 248.0 L 712.0 253.0 L 701.0 253.0 L 700.0 251.0 L 701.0 250.0 L 702.0 241.0 L 708.0 220.0 L 708.0 216.0 L 713.0 199.0 L 713.0 195.0 L 714.0 194.0 Z
    M 1017.0 159.0 L 987.0 159.0 L 986.0 158.0 L 975.0 159.0 L 976.0 160.0 L 975.0 161.0 L 981.0 161.0 L 984.0 163.0 L 983.0 164.0 L 934.0 162.0 L 933.0 161.0 L 891.0 161.0 L 886.0 163.0 L 887.0 167.0 L 886.0 170.0 L 858.0 174.0 L 855.0 177.0 L 828.0 177.0 L 825.0 182.0 L 791.0 185.0 L 783.0 188.0 L 781.0 190.0 L 780.0 194.0 L 784.0 209.0 L 784.0 222.0 L 785.0 226.0 L 784.0 227.0 L 784.0 234.0 L 781.0 244.0 L 780.0 290.0 L 781.0 291.0 L 782.0 304.0 L 784.0 309.0 L 788.0 332.0 L 792.0 343.0 L 799.0 373.0 L 803.0 376.0 L 806.0 376.0 L 807.0 375.0 L 845.0 373.0 L 846.0 372.0 L 853.0 372.0 L 855.0 370.0 L 855.0 367.0 L 847.0 344.0 L 847.0 341.0 L 840.0 318.0 L 840.0 314.0 L 835.0 293.0 L 834.0 282.0 L 833.0 281.0 L 833.0 275.0 L 832.0 274.0 L 832.0 268.0 L 830.0 260.0 L 830.0 252.0 L 829.0 251.0 L 829.0 212.0 L 831.0 211.0 L 833.0 215.0 L 834.0 215.0 L 837.0 205.0 L 839.0 207.0 L 840.0 215.0 L 845.0 228.0 L 856.0 241.0 L 877.0 243.0 L 878.0 244.0 L 891.0 244.0 L 892.0 245.0 L 915.0 247.0 L 928.0 250.0 L 939.0 250.0 L 941.0 252.0 L 953.0 256.0 L 955.0 258.0 L 954.0 259.0 L 943.0 259.0 L 942.0 260.0 L 913.0 260.0 L 912.0 259.0 L 898.0 259.0 L 897.0 258.0 L 888.0 258.0 L 887.0 257.0 L 873.0 257.0 L 868.0 261.0 L 866.0 269.0 L 868.0 285.0 L 875.0 299.0 L 875.0 301.0 L 875.0 298.0 L 877.0 296.0 L 878.0 297.0 L 880.0 296.0 L 882.0 299.0 L 879.0 300.0 L 881.0 302.0 L 886.0 302.0 L 888.0 304.0 L 892.0 303.0 L 896.0 306.0 L 900.0 305.0 L 903.0 308.0 L 904.0 307.0 L 908.0 308.0 L 909.0 310.0 L 910.0 309.0 L 912.0 310.0 L 914.0 313.0 L 918.0 315.0 L 919.0 314.0 L 923.0 316.0 L 924.0 318.0 L 926.0 318.0 L 929.0 325.0 L 932.0 322.0 L 935.0 323.0 L 937.0 328.0 L 941.0 331.0 L 941.0 334.0 L 943.0 335.0 L 946.0 341.0 L 947.0 350.0 L 951.0 365.0 L 950.0 362.0 L 950.0 352.0 L 948.0 345.0 L 948.0 335.0 L 950.0 334.0 L 951.0 336.0 L 951.0 334.0 L 950.0 333.0 L 949.0 334.0 L 947.0 332.0 L 947.0 327.0 L 948.0 326.0 L 955.0 326.0 L 956.0 325.0 L 957.0 326.0 L 958.0 325.0 L 961.0 330.0 L 964.0 329.0 L 966.0 332.0 L 971.0 328.0 L 973.0 330.0 L 973.0 333.0 L 975.0 333.0 L 975.0 330.0 L 978.0 328.0 L 985.0 338.0 L 986.0 335.0 L 987.0 337.0 L 992.0 338.0 L 994.0 340.0 L 994.0 342.0 L 991.0 322.0 L 988.0 312.0 L 988.0 306.0 L 984.0 290.0 L 982.0 272.0 L 984.0 268.0 L 990.0 264.0 L 1002.0 263.0 L 1004.0 265.0 L 1000.0 268.0 L 1000.0 274.0 L 1001.0 275.0 L 1002.0 285.0 L 1009.0 315.0 L 1014.0 329.0 L 1014.0 332.0 L 1016.0 336.0 L 1021.0 356.0 L 1024.0 358.0 L 1026.0 357.0 L 1027.0 358.0 L 1025.0 360.0 L 1024.0 364.0 L 1025.0 366.0 L 1026.0 364.0 L 1031.0 367.0 L 1034.0 377.0 L 1034.0 382.0 L 1037.0 392.0 L 1038.0 401.0 L 1038.0 393.0 L 1036.0 386.0 L 1036.0 375.0 L 1035.0 374.0 L 1035.0 365.0 L 1036.0 363.0 L 1034.0 360.0 L 1034.0 343.0 L 1041.0 339.0 L 1043.0 339.0 L 1044.0 336.0 L 1047.0 336.0 L 1053.0 340.0 L 1055.0 339.0 L 1057.0 340.0 L 1060.0 345.0 L 1059.0 346.0 L 1065.0 351.0 L 1063.0 352.0 L 1069.0 360.0 L 1072.0 360.0 L 1074.0 362.0 L 1073.0 363.0 L 1076.0 365.0 L 1079.0 375.0 L 1077.0 364.0 L 1070.0 341.0 L 1070.0 337.0 L 1068.0 333.0 L 1066.0 322.0 L 1061.0 306.0 L 1061.0 301.0 L 1062.0 300.0 L 1060.0 299.0 L 1053.0 277.0 L 1055.0 274.0 L 1053.0 274.0 L 1050.0 271.0 L 1044.0 260.0 L 1039.0 255.0 L 1026.0 248.0 L 1035.0 237.0 L 1036.0 223.0 L 1027.0 186.0 Z
    M 1061.0 347.0 L 1062.0 346.0 L 1063.0 348.0 L 1062.0 349.0 Z
    M 975.0 322.0 L 976.0 320.0 L 978.0 321.0 L 976.0 323.0 Z
    M 888.0 301.0 L 890.0 300.0 L 891.0 302.0 L 889.0 303.0 Z
    M 986.0 253.0 L 981.0 259.0 L 975.0 262.0 L 959.0 279.0 L 956.0 278.0 L 957.0 274.0 L 962.0 269.0 L 964.0 264.0 L 969.0 260.0 L 971.0 256.0 L 975.0 256.0 L 983.0 252.0 Z
    M 960.0 176.0 L 965.0 176.0 L 972.0 178.0 L 975.0 182.0 L 990.0 240.0 L 989.0 243.0 L 977.0 243.0 L 974.0 239.0 L 963.0 195.0 L 961.0 182.0 L 959.0 178.0 Z
    M 878.0 177.0 L 879.0 176.0 L 881.0 177.0 L 880.0 178.0 Z
    M 881.0 173.0 L 883.0 172.0 L 884.0 174.0 L 882.0 175.0 Z
    M 494.0 189.0 L 490.0 186.0 L 476.0 182.0 L 470.0 179.0 L 465.0 173.0 L 452.0 165.0 L 430.0 160.0 L 423.0 157.0 L 416.0 157.0 L 415.0 158.0 L 394.0 162.0 L 386.0 165.0 L 372.0 174.0 L 358.0 188.0 L 349.0 199.0 L 313.0 250.0 L 297.0 278.0 L 290.0 288.0 L 260.0 346.0 L 256.0 358.0 L 247.0 377.0 L 247.0 380.0 L 244.0 387.0 L 246.0 382.0 L 250.0 379.0 L 253.0 381.0 L 252.0 382.0 L 253.0 385.0 L 260.0 382.0 L 261.0 383.0 L 260.0 388.0 L 262.0 389.0 L 264.0 388.0 L 263.0 386.0 L 264.0 384.0 L 268.0 382.0 L 271.0 383.0 L 274.0 386.0 L 272.0 390.0 L 268.0 394.0 L 268.0 398.0 L 266.0 399.0 L 267.0 402.0 L 264.0 409.0 L 266.0 408.0 L 268.0 410.0 L 268.0 412.0 L 264.0 415.0 L 261.0 412.0 L 261.0 407.0 L 260.0 406.0 L 259.0 407.0 L 255.0 406.0 L 258.0 402.0 L 258.0 400.0 L 254.0 401.0 L 252.0 399.0 L 248.0 400.0 L 246.0 399.0 L 243.0 401.0 L 240.0 398.0 L 242.0 393.0 L 239.0 398.0 L 238.0 403.0 L 231.0 419.0 L 250.0 420.0 L 251.0 421.0 L 267.0 421.0 L 265.0 421.0 L 260.0 417.0 L 256.0 416.0 L 256.0 412.0 L 258.0 410.0 L 262.0 416.0 L 263.0 415.0 L 266.0 417.0 L 269.0 415.0 L 271.0 416.0 L 273.0 415.0 L 278.0 420.0 L 276.0 421.0 L 277.0 422.0 L 297.0 424.0 L 297.0 420.0 L 300.0 412.0 L 303.0 396.0 L 312.0 368.0 L 314.0 365.0 L 323.0 339.0 L 347.0 288.0 L 362.0 262.0 L 363.0 257.0 L 364.0 256.0 L 369.0 256.0 L 370.0 257.0 L 384.0 259.0 L 385.0 262.0 L 373.0 287.0 L 360.0 321.0 L 360.0 324.0 L 351.0 351.0 L 350.0 359.0 L 347.0 366.0 L 343.0 389.0 L 341.0 393.0 L 340.0 403.0 L 346.0 397.0 L 349.0 397.0 L 351.0 400.0 L 353.0 399.0 L 355.0 400.0 L 356.0 396.0 L 358.0 394.0 L 365.0 392.0 L 367.0 394.0 L 360.0 398.0 L 361.0 400.0 L 363.0 398.0 L 365.0 400.0 L 362.0 404.0 L 363.0 403.0 L 364.0 404.0 L 364.0 408.0 L 369.0 407.0 L 371.0 403.0 L 374.0 405.0 L 376.0 401.0 L 378.0 404.0 L 377.0 407.0 L 380.0 407.0 L 383.0 410.0 L 392.0 412.0 L 394.0 409.0 L 396.0 409.0 L 397.0 411.0 L 399.0 411.0 L 400.0 412.0 L 400.0 420.0 L 399.0 421.0 L 397.0 419.0 L 394.0 420.0 L 389.0 419.0 L 387.0 421.0 L 386.0 420.0 L 383.0 421.0 L 379.0 425.0 L 360.0 425.0 L 392.0 427.0 L 393.0 428.0 L 400.0 428.0 L 402.0 429.0 L 402.0 391.0 L 403.0 390.0 L 403.0 382.0 L 404.0 381.0 L 407.0 358.0 L 408.0 357.0 L 408.0 353.0 L 409.0 352.0 L 409.0 348.0 L 415.0 322.0 L 427.0 285.0 L 438.0 262.0 L 440.0 266.0 L 443.0 266.0 L 443.0 262.0 L 444.0 261.0 L 449.0 261.0 L 450.0 262.0 L 452.0 261.0 L 453.0 264.0 L 456.0 263.0 L 457.0 264.0 L 458.0 263.0 L 460.0 254.0 L 464.0 248.0 L 467.0 239.0 L 473.0 229.0 L 477.0 225.0 L 479.0 230.0 L 474.0 241.0 L 477.0 235.0 L 495.0 209.0 L 494.0 207.0 Z
    M 399.0 421.0 L 400.0 422.0 L 399.0 425.0 L 398.0 424.0 Z
    M 281.0 407.0 L 283.0 409.0 L 281.0 412.0 L 278.0 410.0 Z
    M 254.0 407.0 L 255.0 406.0 L 256.0 408.0 L 255.0 409.0 Z
    M 378.0 405.0 L 379.0 404.0 L 383.0 404.0 L 385.0 406.0 L 381.0 407.0 Z
    M 239.0 401.0 L 241.0 400.0 L 245.0 401.0 L 247.0 403.0 L 251.0 403.0 L 254.0 406.0 L 253.0 407.0 L 255.0 410.0 L 253.0 417.0 L 250.0 416.0 L 251.0 414.0 L 250.0 412.0 L 242.0 414.0 L 236.0 414.0 L 235.0 413.0 L 235.0 410.0 Z
    M 350.0 383.0 L 351.0 384.0 L 350.0 387.0 L 349.0 386.0 Z
    M 275.0 383.0 L 277.0 382.0 L 278.0 385.0 L 277.0 386.0 Z
    M 257.0 377.0 L 260.0 376.0 L 262.0 378.0 L 259.0 379.0 Z
    M 273.0 375.0 L 276.0 378.0 L 274.0 380.0 L 271.0 378.0 Z
    M 438.0 261.0 L 439.0 260.0 L 440.0 262.0 L 439.0 263.0 Z
    M 440.0 257.0 L 441.0 258.0 L 440.0 261.0 L 439.0 260.0 Z
    M 440.0 256.0 L 441.0 255.0 L 442.0 257.0 L 441.0 258.0 Z
    M 441.0 254.0 L 442.0 253.0 L 443.0 255.0 L 442.0 256.0 Z
    M 427.0 182.0 L 429.0 185.0 L 412.0 211.0 L 399.0 235.0 L 397.0 237.0 L 382.0 235.0 L 380.0 233.0 L 419.0 180.0 Z
    M 127.0 146.0 L 121.0 152.0 L 98.0 182.0 L 65.0 232.0 L 41.0 277.0 L 41.0 279.0 L 36.0 288.0 L 36.0 290.0 L 29.0 304.0 L 27.0 311.0 L 18.0 331.0 L 17.0 337.0 L 12.0 350.0 L 13.0 349.0 L 18.0 354.0 L 19.0 358.0 L 22.0 360.0 L 24.0 365.0 L 26.0 365.0 L 27.0 367.0 L 28.0 365.0 L 31.0 366.0 L 30.0 368.0 L 33.0 372.0 L 32.0 375.0 L 34.0 378.0 L 33.0 379.0 L 33.0 384.0 L 32.0 385.0 L 30.0 401.0 L 29.0 402.0 L 29.0 412.0 L 28.0 413.0 L 27.0 426.0 L 28.0 425.0 L 29.0 408.0 L 31.0 403.0 L 31.0 398.0 L 37.0 374.0 L 37.0 370.0 L 41.0 359.0 L 45.0 341.0 L 56.0 313.0 L 56.0 307.0 L 62.0 293.0 L 69.0 282.0 L 70.0 285.0 L 63.0 306.0 L 65.0 304.0 L 77.0 277.0 L 78.0 281.0 L 72.0 306.0 L 72.0 311.0 L 69.0 323.0 L 69.0 330.0 L 67.0 336.0 L 66.0 351.0 L 65.0 352.0 L 63.0 393.0 L 67.0 392.0 L 71.0 395.0 L 72.0 394.0 L 75.0 395.0 L 76.0 394.0 L 75.0 392.0 L 77.0 390.0 L 78.0 392.0 L 81.0 391.0 L 90.0 392.0 L 92.0 395.0 L 95.0 395.0 L 95.0 393.0 L 98.0 390.0 L 101.0 393.0 L 102.0 392.0 L 103.0 395.0 L 104.0 394.0 L 105.0 395.0 L 109.0 395.0 L 110.0 394.0 L 111.0 397.0 L 117.0 397.0 L 122.0 402.0 L 123.0 401.0 L 125.0 403.0 L 126.0 402.0 L 129.0 407.0 L 123.0 423.0 L 121.0 425.0 L 119.0 424.0 L 112.0 427.0 L 109.0 427.0 L 122.0 429.0 L 135.0 396.0 L 157.0 349.0 L 172.0 326.0 L 173.0 328.0 L 167.0 339.0 L 166.0 343.0 L 176.0 325.0 L 177.0 322.0 L 176.0 321.0 L 181.0 314.0 L 182.0 317.0 L 171.0 350.0 L 164.0 381.0 L 160.0 393.0 L 153.0 431.0 L 157.0 432.0 L 186.0 432.0 L 187.0 433.0 L 215.0 433.0 L 216.0 432.0 L 216.0 414.0 L 217.0 413.0 L 217.0 406.0 L 218.0 405.0 L 218.0 398.0 L 219.0 397.0 L 220.0 388.0 L 223.0 376.0 L 238.0 331.0 L 242.0 323.0 L 243.0 318.0 L 251.0 298.0 L 258.0 284.0 L 258.0 282.0 L 281.0 237.0 L 296.0 212.0 L 302.0 204.0 L 302.0 198.0 L 259.0 183.0 L 251.0 182.0 L 212.0 223.0 L 183.0 259.0 L 154.0 303.0 L 134.0 343.0 L 129.0 347.0 L 128.0 352.0 L 126.0 355.0 L 125.0 354.0 L 125.0 345.0 L 126.0 344.0 L 127.0 333.0 L 129.0 327.0 L 129.0 322.0 L 130.0 321.0 L 135.0 292.0 L 142.0 269.0 L 142.0 266.0 L 153.0 233.0 L 158.0 223.0 L 162.0 211.0 L 186.0 162.0 L 182.0 158.0 L 175.0 157.0 L 171.0 155.0 L 143.0 148.0 Z
    M 69.0 281.0 L 70.0 280.0 L 71.0 282.0 L 70.0 283.0 Z
    M 390.0 13.0 L 390.0 52.0 L 392.0 59.0 L 392.0 78.0 L 391.0 79.0 L 390.0 89.0 L 392.0 88.0 L 411.0 88.0 L 413.0 89.0 L 413.0 80.0 L 411.0 76.0 L 411.0 62.0 L 412.0 61.0 L 412.0 51.0 L 413.0 50.0 L 413.0 40.0 L 412.0 39.0 L 412.0 15.0 L 413.0 13.0 Z
    M 705.0 13.0 L 705.0 25.0 L 707.0 24.0 L 708.0 25.0 L 735.0 25.0 L 736.0 24.0 L 739.0 25.0 L 749.0 25.0 L 750.0 24.0 L 768.0 25.0 L 769.0 24.0 L 776.0 24.0 L 779.0 28.0 L 777.0 31.0 L 777.0 40.0 L 773.0 43.0 L 715.0 43.0 L 707.0 47.0 L 704.0 52.0 L 704.0 66.0 L 705.0 67.0 L 704.0 89.0 L 705.0 88.0 L 798.0 88.0 L 800.0 89.0 L 799.0 88.0 L 799.0 78.0 L 800.0 77.0 L 799.0 76.0 L 726.0 76.0 L 725.0 77.0 L 724.0 76.0 L 724.0 59.0 L 727.0 55.0 L 747.0 55.0 L 748.0 54.0 L 771.0 54.0 L 772.0 55.0 L 774.0 54.0 L 775.0 55.0 L 782.0 55.0 L 783.0 54.0 L 789.0 54.0 L 797.0 47.0 L 799.0 42.0 L 799.0 21.0 L 795.0 16.0 L 783.0 12.0 L 757.0 12.0 L 756.0 13.0 L 750.0 13.0 L 749.0 12.0 L 713.0 12.0 L 712.0 13.0 Z
    M 605.0 13.0 L 601.0 12.0 L 598.0 13.0 L 586.0 13.0 L 586.0 24.0 L 587.0 25.0 L 586.0 29.0 L 588.0 28.0 L 604.0 28.0 L 605.0 29.0 Z
    M 441.0 13.0 L 434.0 16.0 L 429.0 23.0 L 429.0 53.0 L 430.0 54.0 L 430.0 74.0 L 429.0 76.0 L 436.0 85.0 L 446.0 88.0 L 517.0 88.0 L 520.0 90.0 L 505.0 110.0 L 505.0 113.0 L 508.0 112.0 L 509.0 113.0 L 512.0 112.0 L 518.0 112.0 L 519.0 113.0 L 523.0 112.0 L 524.0 113.0 L 576.0 114.0 L 583.0 118.0 L 595.0 122.0 L 605.0 127.0 L 602.0 130.0 L 528.0 130.0 L 517.0 145.0 L 514.0 152.0 L 510.0 157.0 L 502.0 172.0 L 504.0 171.0 L 505.0 172.0 L 506.0 171.0 L 507.0 172.0 L 508.0 171.0 L 512.0 171.0 L 517.0 174.0 L 520.0 178.0 L 523.0 179.0 L 521.0 182.0 L 522.0 181.0 L 523.0 182.0 L 525.0 179.0 L 531.0 181.0 L 532.0 180.0 L 537.0 186.0 L 538.0 185.0 L 539.0 186.0 L 540.0 184.0 L 542.0 186.0 L 541.0 187.0 L 544.0 186.0 L 545.0 188.0 L 544.0 189.0 L 543.0 188.0 L 543.0 189.0 L 552.0 188.0 L 553.0 187.0 L 554.0 189.0 L 536.0 216.0 L 514.0 259.0 L 504.0 284.0 L 503.0 289.0 L 501.0 292.0 L 500.0 297.0 L 498.0 300.0 L 496.0 309.0 L 493.0 316.0 L 482.0 359.0 L 479.0 379.0 L 478.0 380.0 L 478.0 385.0 L 477.0 386.0 L 477.0 391.0 L 476.0 392.0 L 476.0 397.0 L 475.0 398.0 L 473.0 428.0 L 472.0 429.0 L 472.0 440.0 L 471.0 441.0 L 472.0 443.0 L 471.0 446.0 L 471.0 472.0 L 551.0 469.0 L 551.0 446.0 L 552.0 445.0 L 552.0 430.0 L 553.0 429.0 L 554.0 408.0 L 555.0 407.0 L 555.0 400.0 L 556.0 399.0 L 559.0 373.0 L 560.0 372.0 L 564.0 348.0 L 566.0 343.0 L 566.0 339.0 L 568.0 335.0 L 573.0 315.0 L 575.0 312.0 L 579.0 298.0 L 581.0 295.0 L 586.0 280.0 L 597.0 257.0 L 597.0 255.0 L 610.0 230.0 L 610.0 228.0 L 613.0 223.0 L 613.0 220.0 L 617.0 213.0 L 615.0 208.0 L 615.0 203.0 L 616.0 202.0 L 616.0 197.0 L 618.0 195.0 L 617.0 184.0 L 618.0 183.0 L 619.0 173.0 L 627.0 164.0 L 635.0 162.0 L 655.0 161.0 L 667.0 152.0 L 691.0 161.0 L 695.0 161.0 L 701.0 152.0 L 709.0 143.0 L 709.0 139.0 L 710.0 138.0 L 708.0 135.0 L 691.0 127.0 L 689.0 125.0 L 614.0 90.0 L 620.0 88.0 L 632.0 88.0 L 635.0 89.0 L 635.0 87.0 L 651.0 71.0 L 657.0 75.0 L 669.0 88.0 L 687.0 88.0 L 688.0 89.0 L 687.0 87.0 L 660.0 63.0 L 663.0 62.0 L 688.0 37.0 L 668.0 37.0 L 651.0 54.0 L 649.0 53.0 L 644.0 46.0 L 635.0 37.0 L 614.0 37.0 L 619.0 40.0 L 642.0 63.0 L 633.0 70.0 L 614.0 90.0 L 607.0 88.0 L 604.0 83.0 L 604.0 50.0 L 605.0 49.0 L 604.0 40.0 L 605.0 37.0 L 586.0 37.0 L 586.0 47.0 L 588.0 50.0 L 587.0 52.0 L 588.0 77.0 L 587.0 78.0 L 587.0 86.0 L 585.0 89.0 L 584.0 88.0 L 575.0 88.0 L 574.0 87.0 L 558.0 87.0 L 557.0 88.0 L 556.0 87.0 L 556.0 80.0 L 555.0 79.0 L 555.0 67.0 L 556.0 66.0 L 556.0 49.0 L 555.0 48.0 L 556.0 47.0 L 576.0 47.0 L 577.0 48.0 L 577.0 37.0 L 557.0 37.0 L 556.0 36.0 L 556.0 27.0 L 558.0 23.0 L 563.0 23.0 L 564.0 24.0 L 569.0 24.0 L 570.0 23.0 L 574.0 24.0 L 575.0 23.0 L 577.0 24.0 L 577.0 12.0 L 576.0 13.0 L 573.0 12.0 L 566.0 12.0 L 565.0 13.0 L 554.0 12.0 L 553.0 13.0 L 548.0 13.0 L 543.0 15.0 L 538.0 22.0 L 538.0 36.0 L 537.0 37.0 L 528.0 37.0 L 528.0 47.0 L 538.0 47.0 L 539.0 48.0 L 538.0 49.0 L 539.0 85.0 L 538.0 86.0 L 525.0 86.0 L 524.0 85.0 L 520.0 90.0 L 519.0 89.0 L 519.0 76.0 L 453.0 76.0 L 449.0 73.0 L 450.0 71.0 L 450.0 53.0 L 451.0 52.0 L 451.0 30.0 L 450.0 27.0 L 452.0 25.0 L 453.0 26.0 L 455.0 24.0 L 470.0 24.0 L 471.0 25.0 L 517.0 24.0 L 519.0 25.0 L 519.0 13.0 L 518.0 12.0 L 482.0 12.0 L 481.0 13.0 L 448.0 12.0 L 447.0 13.0 Z
    M 556.0 183.0 L 557.0 185.0 L 555.0 187.0 L 554.0 185.0 Z
    M 593.0 95.0 L 588.0 100.0 L 585.0 99.0 L 587.0 95.0 L 589.0 94.0 Z
    M 586.0 90.0 L 588.0 88.0 L 598.0 88.0 L 599.0 89.0 L 595.0 93.0 L 594.0 92.0 L 589.0 92.0 Z
    M 538.0 90.0 L 540.0 88.0 L 554.0 88.0 L 556.0 90.0 L 555.0 91.0 L 553.0 90.0 L 552.0 91.0 L 539.0 91.0 Z
    M 281.0 13.0 L 282.0 14.0 L 282.0 25.0 L 283.0 24.0 L 285.0 25.0 L 291.0 25.0 L 292.0 24.0 L 294.0 25.0 L 351.0 25.0 L 355.0 28.0 L 353.0 41.0 L 351.0 43.0 L 282.0 43.0 L 282.0 54.0 L 283.0 55.0 L 282.0 89.0 L 283.0 88.0 L 302.0 88.0 L 304.0 89.0 L 304.0 66.0 L 303.0 65.0 L 303.0 56.0 L 304.0 55.0 L 363.0 55.0 L 370.0 53.0 L 373.0 50.0 L 372.0 49.0 L 373.0 46.0 L 375.0 45.0 L 375.0 23.0 L 374.0 20.0 L 369.0 15.0 L 363.0 13.0 L 354.0 13.0 L 353.0 12.0 L 347.0 12.0 L 346.0 13.0 L 339.0 13.0 L 338.0 12.0 L 334.0 12.0 L 333.0 13.0 L 320.0 13.0 L 319.0 12.0 L 314.0 12.0 L 313.0 13.0 L 309.0 13.0 L 308.0 12.0 Z" fill="#FFFFFF" fill-rule="evenodd"/>
</svg>
